<?xml version="1.0" encoding="UTF-8"?>
<svg width="1120px" height="135px" viewBox="0 0 1120 135" version="1.1" xmlns="http://www.w3.org/2000/svg" xmlns:xlink="http://www.w3.org/1999/xlink">
    <!-- Generator: Sketch 60.1 (88133) - https://sketch.com -->
    <title>footer-topper</title>
    <desc>Created with Sketch.</desc>
    <g id="Art" stroke="none" stroke-width="1" fill="none" fill-rule="evenodd">
        <g id="Trace" transform="translate(-3.000000, -37.000000)" fill="#312783">
            <g id="footer-topper" transform="translate(3.000000, 37.000000)">
                <g id="Group" transform="translate(36.000000, 0.000000)" fill-rule="nonzero">
                    <g id="refinery" transform="translate(189.500000, 67.000000) scale(-1, 1) translate(-189.500000, -67.000000) translate(106.000000, 0.000000)">
                        <path d="M158.898688,113.40088 L158.898688,87.883226 L152.626292,87.883226 L152.626292,78.5975584 C152.626292,70.4300112 146.534043,63.6787002 138.61551,62.5777643 L138.61551,62.2796486 C138.61551,52.304355 130.44575,44.1887352 120.403072,44.1887352 L119.797946,44.1887352 C109.756772,44.1887352 101.585508,52.304355 101.585508,62.2796486 L101.585508,95.017455 L92.6944116,95.017455 L92.6944116,60.2115179 C92.6944116,57.9390398 91.4728777,55.9549643 89.6496031,54.857017 C91.7790134,54.2342616 93.3348895,52.2808195 93.3348895,49.9638856 C93.3348895,47.1456092 91.0343591,44.8604294 88.1967751,44.8604294 L84.0669527,44.8604294 L84.0669527,40.1058956 L77.6734565,40.1058956 L77.6734565,44.8604294 L73.5425058,44.8604294 C70.7049218,44.8604294 68.4051436,47.1452356 68.4051436,49.9638856 C68.4051436,52.2808195 69.9610197,54.2342616 72.09043,54.857017 C70.2671554,55.9553379 69.0448693,57.9390398 69.0448693,60.2115179 L69.0448693,95.017455 L60.3948451,95.017455 L60.3948451,63.0406281 C60.3948451,61.375215 59.0360391,60.0254758 57.3598149,60.0254758 L51.1874585,60.0254758 L51.1874585,27.3033597 C51.1874585,21.314896 46.2828948,16.4430585 40.2545801,16.4430585 L40.2545801,15.9697346 C40.2545801,7.15029287 33.0566316,0 24.1775698,0 C15.298508,0 8.10093572,7.15066645 8.10093572,15.9701081 L8.10093572,113.401254 L0,113.401254 L0,134 L167,134 L167,113.401254 L158.898688,113.401254 L158.898688,113.40088 Z M107.657449,62.2796486 C107.657449,55.6295774 113.103204,50.2190397 119.797946,50.2190397 L120.403072,50.2190397 C127.098567,50.2190397 132.545073,55.6295774 132.545073,62.2796486 L132.545073,62.8620575 C125.377212,64.5599719 120.046916,70.9586248 120.046916,78.5986791 L120.046916,87.8839732 L113.775273,87.8839732 L113.775273,95.0185758 L107.656321,95.0185758 L107.656321,62.2800222 L107.657449,62.2800222 L107.657449,62.2796486 Z M113.776025,101.04776 L113.776025,113.40088 L107.657073,113.40088 L107.657073,101.04776 L113.776025,101.04776 Z M101.58626,101.04776 L101.58626,113.40088 L92.6951638,113.40088 L92.6951638,101.04776 L101.58626,101.04776 Z M54.3247847,66.0561539 L54.3247847,98.0329808 C54.3247847,99.6983939 55.6835906,101.048133 57.3598149,101.048133 L69.0448693,101.048133 L69.0448693,113.401628 L51.1874585,113.401628 L51.1874585,66.0561539 L54.3247847,66.0561539 Z M40.2545801,22.4737366 C42.9357115,22.4737366 45.117398,24.640492 45.117398,27.3037333 L45.117398,60.0258494 L40.2545801,60.0258494 L40.2545801,22.4737366 Z M40.2545801,66.0561539 L45.117398,66.0561539 L45.117398,113.40088 L40.2545801,113.40088 L40.2545801,66.0561539 Z" id="Shape"></path>
                    </g>
                    <g id="pumpjack" transform="translate(795.000000, 1.000000)">
                        <path d="M96.555082,104.891529 L91.5118024,104.891529 L91.5118024,79.0811253 C91.5118024,78.4011779 90.9637901,77.8497556 90.2884301,77.8497556 L84.5964083,77.8497556 L84.5964083,58.1281274 L85.192176,58.376504 C85.498541,58.5039777 85.8150834,58.5644292 86.1269285,58.5644292 C87.0862111,58.5644292 87.9969555,57.9917174 88.3868271,57.0434181 L91.8669666,48.5783754 C92.114616,47.9746494 92.114616,47.2968047 91.8664447,46.6933415 C91.6182734,46.0898784 91.1422855,45.6107349 90.5428644,45.3607813 L37.6922907,23.3209715 C39.6239038,19.6108295 41.3595372,15.8310369 42.8514357,12.0872524 C43.3503879,10.8345932 42.755664,9.41083019 41.5176779,8.89489021 L20.6404944,0.18804171 C19.4035522,-0.328423932 17.9823735,0.255063969 17.4565425,1.49642134 C12.2872202,13.6884273 8.95295634,27.2765989 6.96314953,44.258988 C6.83475806,45.3539477 7.4448785,46.4013348 8.45661371,46.8231807 L17.4046118,50.5543493 C18.4147813,50.9759325 19.5815257,50.6697327 20.2597563,49.8042257 C24.1409886,44.846944 27.4916928,40.1908683 30.5028903,35.5700121 L41.0664811,39.9750829 L40.5466522,43.6008557 L38.9717691,54.5825185 L31.7591434,104.891529 L14.8754043,104.891529 L2.44491804,104.891529 C1.09471994,104.891529 0,105.993585 0,107.354005 L0,118.537523 C0,119.897418 1.09471994,121 2.44491804,121 L96.555082,121 C97.9052801,121 99,119.897418 99,118.537523 L99,107.354005 C99,105.993585 97.9052801,104.891529 96.555082,104.891529 Z M79.7065722,77.8497556 L74.0145504,77.8497556 C73.3386685,77.8497556 72.791178,78.4011779 72.791178,79.0811253 L72.791178,104.891529 L67.2405956,104.891529 L60.0274481,54.5825185 L59.0063184,47.4566068 L79.7057893,56.0890737 L79.7057893,77.8497556 L79.7065722,77.8497556 Z M55.5546233,61.1701494 L46.9615284,54.7141975 L53.7952427,48.8969283 L55.5546233,61.1701494 Z M52.68617,65.7523693 L41.7880307,72.7313577 L43.7512198,59.0391044 L52.68617,65.7523693 Z M56.7558142,69.5468805 L59.3807935,87.8592014 L45.2355504,76.9240599 L56.7558142,69.5468805 Z M46.2689452,104.891529 L60.3497315,94.6155708 L61.8231019,104.891529 L46.2689452,104.891529 Z M51.0692726,44.1462329 L45.1656136,49.1710625 L46.1783927,42.1066535 L51.0692726,44.1462329 Z M40.7118388,80.2346967 L55.3784765,91.5735487 L37.1826392,104.852104 L40.7118388,80.2346967 Z" id="Shape"></path>
                    </g>
                    <g id="pumpjack-copy" transform="translate(976.000000, 28.000000)">
                        <path d="M66.3206624,71.9503874 L62.8565916,71.9503874 L62.8565916,54.2457306 C62.8565916,53.7793204 62.480179,53.401072 62.0162954,53.401072 L58.1066239,53.401072 L58.1066239,39.873013 L58.5158381,40.043387 C58.7262706,40.1308277 58.9436936,40.1722944 59.1578903,40.1722944 C59.8167915,40.1722944 60.4423533,39.7794425 60.7101439,39.1289562 L63.1005427,33.3223567 C63.2706454,32.9082306 63.2706454,32.4432627 63.1001843,32.0293169 C62.9297231,31.6153711 62.602782,31.2867025 62.1910584,31.1152467 L25.8896542,15.99703 C27.2164188,13.4520566 28.408571,10.8593063 29.4333093,8.29125577 C29.776024,7.43199371 29.3675268,6.45536286 28.5171929,6.10145362 L14.1773093,0.128987288 C13.3276924,-0.225282532 12.3515292,0.174961235 11.9903525,1.02647083 C8.43970678,9.38958236 6.14950537,18.7103943 4.78276937,30.3594711 C4.69458129,31.1105592 5.11365392,31.8290148 5.80858315,32.1183802 L11.9546829,34.6777768 C12.6485367,34.9669619 13.4499369,34.7569241 13.9157922,34.1632292 C16.5816892,30.7627798 18.883183,27.5689427 20.9514802,24.3992645 L28.2072799,27.4209246 L27.8502258,29.908025 L26.7684878,37.4409011 L21.8143611,71.9503874 L10.2174494,71.9503874 L1.67933764,71.9503874 C0.751928851,71.9503874 0,72.7063433 0,73.6395243 L0,81.3108631 C0,82.2436835 0.751928851,83 1.67933764,83 L66.3206624,83 C67.2480711,83 68,82.2436835 68,81.3108631 L68,73.6395243 C68,72.7063433 67.2480711,71.9503874 66.3206624,71.9503874 Z M54.7479486,53.401072 L50.838277,53.401072 C50.3740349,53.401072 49.9979809,53.7793204 49.9979809,54.2457306 L49.9979809,71.9503874 L46.1854596,71.9503874 L41.2309744,37.4409011 L40.5295924,32.552879 L54.7474108,38.4743233 L54.7474108,53.401072 L54.7479486,53.401072 Z M38.1587312,41.9596893 L32.2564034,37.5312264 L36.9502677,33.5408682 L38.1587312,41.9596893 Z M36.1884804,45.1028649 L28.7028898,49.8901049 L30.0513429,40.4978981 L36.1884804,45.1028649 Z M38.9837916,47.7057114 L40.7868076,60.2670555 L31.0708831,52.7660907 L38.9837916,47.7057114 Z M31.7806896,71.9503874 L41.4523408,64.9015899 L42.4643528,71.9503874 L31.7806896,71.9503874 Z M35.0778842,30.2821267 L31.0228457,33.7289106 L31.7184919,28.8830764 L35.0778842,30.2821267 Z M27.9636873,55.0370233 L38.0377414,62.8149136 L25.5395905,71.9233439 L27.9636873,55.0370233 Z" id="Shape"></path>
                    </g>
                    <g id="refinery" transform="translate(743.500000, 85.000000) scale(-1, 1) translate(-743.500000, -85.000000) translate(703.000000, 50.000000)">
                        <polygon id="Path" points="76.3563278 39.7906315 69.5213756 27.7892846 65.916804 27.7892846 65.5384109 24.1602129 62.3777493 24.1602129 61.6578283 0 55.4860668 0 54.7657637 24.1602129 51.6054841 24.1602129 49.9750129 39.7906315 46.2302392 39.7906315 46.2302392 30.8386784 36.6796814 30.8386784 36.6796814 38.5561569 20.9806654 30.2666656 20.9806654 38.5368024 5.3177506 30.2666656 5.3177506 39.7906315 0 39.7906315 0 70 81 70 81 39.7906315"></polygon>
                    </g>
                    <g id="tanks" transform="translate(0.000000, 42.000000)">
                        <polygon id="Path" points="72 56 62 58.2637237 62 64 72 61.7362763"></polygon>
                        <path d="M72,0 C68.311106,0.0476491594 64.8893999,0.309068591 62,0.728016664 L62,7 L72,4.4233001 L72,0 Z" id="Path"></path>
                        <polygon id="Path" points="72 27 62 29.2687491 62 35 72 32.7312509"></polygon>
                        <polygon id="Path" points="72 8 62 10.2635943 62 16 72 13.7364057"></polygon>
                        <polygon id="Path" points="72 18 62 20.2637884 62 26 72 23.7364403"></polygon>
                        <polygon id="Path" points="72 46 62 48.2637884 62 54 72 51.7362116"></polygon>
                        <polygon id="Path" points="72 37 62 39.2684856 62 45 72 42.7310558"></polygon>
                        <polygon id="Path" points="20 49 12 50.7020051 12 55 20 53.2982285"></polygon>
                        <polygon id="Path" points="20 56 12 57.980696 12 63 20 61.0190321"></polygon>
                        <path d="M20,24 C16.9480852,24.180182 14.2222778,24.462657 12,24.8209873 L12,28 L20,26.5186842 L20,24 Z" id="Path"></path>
                        <polygon id="Path" points="20 42 12 43.7016041 12 48 20 46.2986295"></polygon>
                        <polygon id="Path" points="20 28 12 29.9808499 12 35 20 33.0191501"></polygon>
                        <polygon id="Path" points="20 36 12 37.9803061 12 43 20 41.019422"></polygon>
                        <path d="M93.0674235,68.8575753 C93.071823,50.2979524 93.0836321,3.92981191 93.0836321,3.88594511 C93.0836321,1.80903882 84.6130216,0.112233673 73.9468414,0 L73.9468414,68.8578087 L71.5991426,68.8578087 L71.5991426,64.7774963 L61.5289755,67.08657 L61.5289755,68.8585087 L59.1810451,68.8585087 L59.1810451,1.00753639 C55.1108359,1.71920521 52.5563617,2.74540832 52.5563617,3.88571177 C52.5563617,3.92957857 52.5751174,50.2981858 52.5832217,68.857342 L46.4987475,68.857342 C46.5040732,54.8873997 46.5154192,26.4043133 46.5154192,26.3623132 C46.5154192,24.2123734 37.4432384,22.4700681 26.2514367,22.4700681 C24.3568837,22.4700681 22.5239235,22.5202349 20.7847415,22.6135685 L20.7847415,68.857342 L13.8861329,68.857342 L19.0566739,67.6720051 L19.0566739,63.3644253 L11.6437899,65.0637972 L11.6437899,68.857342 L9.91618544,68.857342 L9.91618544,24.0590729 C7.44692212,24.7044749 5.98791723,25.5008439 5.98791723,26.3623132 C5.98791723,26.40408 6.00458893,54.8873997 6.01269322,68.857342 L0,68.857342 L0,77 L99,77 L99,68.8575753 L93.0674235,68.8575753 Z" id="Path"></path>
                    </g>
                    <g id="oil-tower" transform="translate(940.500000, 53.500000) scale(-1, 1) translate(-940.500000, -53.500000) translate(912.000000, 0.000000)">
                        <path d="M24.9445422,26.435877 C30.0083458,26.435877 33.6245676,28.5730808 33.659112,28.593718 C33.8005688,28.679442 33.9649822,28.7184487 34.1125608,28.7195826 C34.6027403,28.7184487 35,28.3059303 35,27.7974826 C35,27.6146955 34.9490581,27.4443814 34.8605109,27.3012813 C34.2540176,26.1088558 27.6151679,13.4545867 17.0384843,9.11032997 C15.2441474,8.37351173 13.4845735,8 11.8080808,8 C5.20355677,8 1.91375693,13.6019957 1.06282977,15.3189704 C-0.452310318,18.3757795 -0.342992851,21.7904524 1.36192236,24.6880598 C3.2898452,27.9646218 6.89579115,30.0004535 10.7724072,30 C12.6926778,29.9997731 14.5956762,29.5153645 16.4287115,28.5597006 C19.1323511,27.1502437 21.9973433,26.435877 24.9445422,26.435877 Z" id="Path"></path>
                        <path d="M56.4230821,17.6594887 C55.9613062,16.8010643 54.1752621,14 50.5893864,14 C49.6796223,14 48.7241182,14.1871139 47.7495742,14.5552789 C41.8493478,16.7870569 38.2063519,23.4058728 38.0540315,23.6866483 C37.9553297,23.8689537 37.994504,24.0918179 38.1498883,24.2327283 C38.3057103,24.3742659 38.5400999,24.4001901 38.7256856,24.2971206 C38.7451634,24.2860401 40.6931573,23.2181317 43.457247,23.2181317 C45.0574865,23.2181317 46.6128614,23.5752162 48.0806959,24.2799772 C49.075812,24.7576927 50.109227,25 51.1513961,25 C53.2558686,25 55.2137107,23.9824765 56.2606945,22.3438183 C57.1864348,20.8949919 57.2453058,19.1875511 56.4230821,17.6594887 Z" id="Path"></path>
                        <path d="M36.0117568,19 C36.0586848,19 36.1064115,18.9920687 36.1523411,18.9751343 C36.3382558,18.9080396 36.4600689,18.7172594 36.4516818,18.506758 C36.4498845,18.4576696 36.3035091,13.5477571 40.4219902,10.3955955 C42.5728901,8.74909743 43.4858893,6.05502279 42.747622,3.53179295 C42.1169896,1.37726206 40.4445556,0.0244370233 38.3825193,0.000428719708 L38.3052379,0 C35.5852112,0 32.5175179,1.5836906 32.0662104,6.02779909 C31.4383736,12.2069362 35.4779757,18.5303376 35.6501116,18.7965725 C35.7339829,18.9266889 35.8703737,19 36.0117568,19 Z" id="Path"></path>
                        <path d="M53.4157319,98.8122096 L50.9549566,98.8122096 L41.6293889,34.0427834 C41.4604209,32.8701484 40.4587933,32 39.277568,32 L30.722432,32 C29.5412067,32 28.5393576,32.8701484 28.3706111,34.0427834 L19.0448219,98.8122096 L16.5840466,98.8122096 C15.709311,98.8122096 15,99.5235637 15,100.401041 L15,105.411168 C15,106.288646 15.709311,107 16.5840466,107 L53.4159534,107 C54.290689,107 55,106.288646 55,105.411168 L55,100.401041 C55,99.5235637 54.290689,98.8122096 53.4157319,98.8122096 Z M41.4305249,66.0137429 L43.7573217,82.1750069 L31.2202562,72.5240879 L41.4305249,66.0137429 Z M40.3664478,58.6205904 L32.750047,52.9228726 L38.8067609,47.7892633 L40.3664478,58.6205904 Z M32.780386,36.7664946 L37.219614,36.7664946 L38.0062117,42.2272424 L31.1584711,48.0313413 L32.780386,36.7664946 Z M29.9043881,56.7403768 L37.8235138,62.6652927 L28.1644392,68.8238471 L29.9043881,56.7403768 Z M27.2110881,75.4459033 L40.2103241,85.4526104 L24.0828563,97.1718532 L27.2110881,75.4459033 Z M31.0182919,98.0177938 L44.6158914,88.1370117 L46.0389423,98.0177938 L31.0182919,98.0177938 Z" id="Shape"></path>
                    </g>
                </g>
                <g id="pipes" transform="translate(335.000000, 22.000000)">
                    <rect id="Rectangle" x="78" y="82" width="4" height="26"></rect>
                    <rect id="Rectangle-Copy-13" x="60" y="16" width="4" height="69" rx="2"></rect>
                    <rect id="Rectangle-Copy-14" x="17" y="16" width="4" height="92" rx="2"></rect>
                    <path d="M39,0 L39,59.169 L46,66 L46,107 L25,107 L25,66 L33,58.56 L33,0 L39,0 Z" id="Combined-Shape"></path>
                    <rect id="Rectangle-Copy-15" x="17" y="16" width="47" height="4" rx="2"></rect>
                    <rect id="Rectangle-Copy-20" x="2" y="32" width="37" height="4" rx="2"></rect>
                    <rect id="Rectangle-Copy-21" x="0" y="32" width="7" height="18" rx="2"></rect>
                    <rect id="Rectangle-Copy-16" x="60" y="81" width="313" height="4" rx="2"></rect>
                    <rect id="Rectangle-Copy" x="109" y="82" width="4" height="26"></rect>
                    <rect id="Rectangle-Copy-2" x="139" y="82" width="4" height="26"></rect>
                    <rect id="Rectangle-Copy-3" x="169" y="82" width="4" height="26"></rect>
                    <rect id="Rectangle-Copy-4" x="199" y="82" width="4" height="26"></rect>
                    <rect id="Rectangle-Copy-5" x="229" y="82" width="4" height="26"></rect>
                    <rect id="Rectangle-Copy-6" x="259" y="82" width="4" height="26"></rect>
                    <rect id="Rectangle-Copy-7" x="291" y="82" width="4" height="26"></rect>
                    <rect id="Rectangle-Copy-8" x="323" y="82" width="4" height="26"></rect>
                    <rect id="Rectangle-Copy-9" x="355" y="82" width="4" height="26"></rect>
                    <rect id="Rectangle-Copy-10" x="369" y="82" width="4" height="26" rx="2"></rect>
                    <rect id="Rectangle-Copy-11" x="384" y="84" width="4" height="23" rx="2"></rect>
                    <rect id="Rectangle-Copy-12" x="378" y="91" width="4" height="16" rx="2"></rect>
                    <rect id="Rectangle-Copy-17" x="378" y="91" width="29" height="4" rx="2"></rect>
                    <rect id="Rectangle-Copy-18" x="384" y="84" width="29" height="4" rx="2"></rect>
                    <rect id="Rectangle" x="0" y="46" width="10" height="58"></rect>
                </g>
                <path d="M0,135 L1120,135 C1113.61138,127.169859 1110.41708,122.168569 1110.41708,119.996129 L1093.20772,114.011047 L1080.43684,98.1649036 C1048.81388,99.0314846 1030.5725,99.0314846 1025.71272,98.1649036 C1020.85293,97.2983225 1014.76669,94.0554186 1007.45401,88.4361918 L977.584379,88.4361918 L973.492856,98.1649036 C952.727052,97.1899211 941.073585,97.1899211 938.532454,98.1649036 C934.720758,99.6273773 902.859251,105.769389 866.921346,104.21616 C842.962743,103.180675 827.115969,103.180675 819.381023,104.21616 L815.077739,110.743879 L801.076941,114.011047 L794.899005,110.743879 L787.961,110.743879 L779.50758,104.21616 C746.744513,117.936502 726.661891,124.796673 719.259713,124.796673 C708.156446,124.796673 701.641017,114.593346 645.561247,124.796673 L619.590285,126.051167 C618.566774,121.707548 616.865754,119.535738 614.487226,119.535738 C610.919433,119.535738 585.896668,121.563538 583.89912,119.535738 C582.567421,118.183872 580.212526,115.937694 576.834436,112.797204 C568.991089,115.180774 565.069416,116.37256 565.069416,116.37256 C565.069416,116.37256 560,113.406962 560,110.815727 C560,108.224492 516.225441,114.506417 506.193268,114.506417 C496.161095,114.506417 491.292485,104.145258 477.018477,108.471231 C462.744469,112.797204 472.979894,116.21563 454.310902,114.506417 C435.641909,112.797204 441.655352,120.965124 420.771378,119.535738 L412.484342,126.051167 L387.160007,126.051167 C364.288569,119.167047 339.642058,118.673884 313.220474,124.571677 C295.09664,120.357887 278.785064,119.30444 264.285744,121.411335 C251.476022,123.272714 237.121736,114.138671 209.846176,117.600584 C168.932835,122.793453 88.3493042,101.220311 84.4506348,97.8189014 C81.8515218,95.5512951 70.6026693,97.5790948 50.7040772,103.9023 C49.8091037,107.425903 37.533732,108.347295 33.2173913,110.743879 C27.8040703,113.749545 29.3697605,117.907579 18.5750326,119.140577 L0,135 Z" id="Sand"></path>
            </g>
        </g>
    </g>
</svg>