<?xml version="1.0" encoding="utf-8"?>
<!-- Generator: Adobe Illustrator 24.1.3, SVG Export Plug-In . SVG Version: 6.00 Build 0)  -->
<svg version="1.1" id="Layer_1" xmlns="http://www.w3.org/2000/svg" xmlns:xlink="http://www.w3.org/1999/xlink" x="0px" y="0px"
	 viewBox="0 0 1120 135" style="enable-background:new 0 0 1120 135;" xml:space="preserve">
<style type="text/css">
	.st0{fill:#F0D6BB;}
	.st1{fill-rule:evenodd;clip-rule:evenodd;fill:#F0D6BB;}
</style>
<desc>Created with Sketch.</desc>
<g id="Art">
	<g id="Trace" transform="translate(-3.000000, -37.000000)">
		<g id="footer-topper" transform="translate(3.000000, 37.000000)">
			<g id="Group" transform="translate(36.000000, 0.000000)">
				
					<g id="refinery" transform="translate(189.500000, 67.000000) scale(-1, 1) translate(-189.500000, -67.000000) translate(106.000000, 0.000000)">
					<path id="Shape" class="st0" d="M158.9,113.4V87.9h-6.3v-9.3c0-8.2-6.1-14.9-14-16v-0.3c0-10-8.2-18.1-18.2-18.1h-0.6
						c-10,0-18.2,8.1-18.2,18.1V95h-8.9V60.2c0-2.3-1.2-4.3-3-5.4c2.1-0.6,3.7-2.6,3.7-4.9c0-2.8-2.3-5.1-5.1-5.1h-4.1v-4.8h-6.4
						v4.8h-4.1c-2.8,0-5.1,2.3-5.1,5.1c0,2.3,1.6,4.3,3.7,4.9c-1.8,1.1-3,3.1-3,5.4V95h-8.7V63c0-1.7-1.4-3-3-3h-6.2V27.3
						c0-6-4.9-10.9-10.9-10.9V16c0-8.8-7.2-16-16.1-16S8.1,7.2,8.1,16v97.4H0V134h167v-20.6L158.9,113.4L158.9,113.4z M107.7,62.3
						c0-6.7,5.4-12.1,12.1-12.1h0.6c6.7,0,12.1,5.4,12.1,12.1v0.6C125.4,64.6,120,71,120,78.6v9.3h-6.3V95h-6.1L107.7,62.3
						L107.7,62.3L107.7,62.3z M113.8,101v12.4h-6.1V101H113.8z M101.6,101v12.4h-8.9V101H101.6z M54.3,66.1v32c0,1.7,1.4,3,3,3H69
						v12.4H51.2V66.1H54.3z M40.3,22.5c2.7,0,4.9,2.2,4.9,4.8V60h-4.9V22.5z M40.3,66.1h4.9v47.3h-4.9V66.1z"/>
				</g>
				<g id="pumpjack" transform="translate(795.000000, 1.000000)">
					<path id="Shape_1_" class="st0" d="M96.6,104.9h-5V79.1c0-0.7-0.5-1.2-1.2-1.2h-5.7V58.1l0.6,0.2c0.3,0.1,0.6,0.2,0.9,0.2
						c1,0,1.9-0.6,2.3-1.5l3.5-8.5c0.2-0.6,0.2-1.3,0-1.9c-0.2-0.6-0.7-1.1-1.3-1.3l-52.9-22c1.9-3.7,3.7-7.5,5.2-11.2
						c0.5-1.3-0.1-2.7-1.3-3.2L20.6,0.2c-1.2-0.5-2.7,0.1-3.2,1.3C12.3,13.7,9,27.3,7,44.3c-0.1,1.1,0.5,2.1,1.5,2.6l8.9,3.7
						c1,0.4,2.2,0.1,2.9-0.8c3.9-5,7.2-9.6,10.2-14.2L41.1,40l-0.5,3.6l-1.6,11l-7.2,50.3H14.9H2.4c-1.4,0-2.4,1.1-2.4,2.5v11.2
						c0,1.4,1.1,2.5,2.4,2.5h94.1c1.4,0,2.4-1.1,2.4-2.5v-11.2C99,106,97.9,104.9,96.6,104.9z M79.7,77.8H74c-0.7,0-1.2,0.6-1.2,1.2
						v25.8h-5.6L60,54.6l-1-7.1l20.7,8.6L79.7,77.8L79.7,77.8z M55.6,61.2L47,54.7l6.8-5.8L55.6,61.2z M52.7,65.8l-10.9,7l2-13.7
						L52.7,65.8z M56.8,69.5l2.6,18.3L45.2,76.9L56.8,69.5z M46.3,104.9l14.1-10.3l1.5,10.3H46.3z M51.1,44.1l-5.9,5l1-7.1
						L51.1,44.1z M40.7,80.2l14.7,11.3l-18.2,13.3L40.7,80.2z"/>
				</g>
				<g id="pumpjack-copy" transform="translate(976.000000, 28.000000)">
					<path id="Shape_2_" class="st0" d="M66.3,72h-3.5V54.2c0-0.5-0.4-0.8-0.8-0.8h-3.9V39.9l0.4,0.2c0.2,0.1,0.4,0.1,0.6,0.1
						c0.7,0,1.3-0.4,1.6-1l2.4-5.8c0.2-0.4,0.2-0.9,0-1.3c-0.2-0.4-0.5-0.7-0.9-0.9L25.9,16c1.3-2.5,2.5-5.1,3.5-7.7
						c0.3-0.9-0.1-1.8-0.9-2.2l-14.3-6c-0.8-0.4-1.8,0-2.2,0.9C8.4,9.4,6.1,18.7,4.8,30.4c-0.1,0.8,0.3,1.5,1,1.8l6.1,2.6
						c0.7,0.3,1.5,0.1,2-0.5c2.7-3.4,5-6.6,7-9.8l7.3,3l-0.4,2.5l-1.1,7.5l-5,34.5H10.2H1.7C0.8,72,0,72.7,0,73.6v7.7
						C0,82.2,0.8,83,1.7,83h64.6c0.9,0,1.7-0.8,1.7-1.7v-7.7C68,72.7,67.2,72,66.3,72z M54.7,53.4h-3.9c-0.5,0-0.8,0.4-0.8,0.8V72
						h-3.8l-5-34.5l-0.7-4.9l14.2,5.9L54.7,53.4L54.7,53.4z M38.2,42l-5.9-4.4l4.7-4L38.2,42z M36.2,45.1l-7.5,4.8l1.3-9.4
						L36.2,45.1z M39,47.7l1.8,12.6l-9.7-7.5L39,47.7z M31.8,72l9.7-7l1,7H31.8z M35.1,30.3L31,33.7l0.7-4.8L35.1,30.3z M28,55
						L38,62.8l-12.5,9.1L28,55z"/>
				</g>
				
					<g id="refinery_1_" transform="translate(743.500000, 85.000000) scale(-1, 1) translate(-743.500000, -85.000000) translate(703.000000, 50.000000)">
					<polygon id="Path" class="st0" points="76.4,39.8 69.5,27.8 65.9,27.8 65.5,24.2 62.4,24.2 61.7,0 55.5,0 54.8,24.2 51.6,24.2 
						50,39.8 46.2,39.8 46.2,30.8 36.7,30.8 36.7,38.6 21,30.3 21,38.5 5.3,30.3 5.3,39.8 0,39.8 0,70 81,70 81,39.8 					"/>
				</g>
				<g id="tanks" transform="translate(0.000000, 42.000000)">
					<polygon id="Path_1_" class="st0" points="72,56 62,58.3 62,64 72,61.7 					"/>
					<path id="Path_2_" class="st0" d="M72,0c-3.7,0-7.1,0.3-10,0.7V7l10-2.6V0z"/>
					<polygon id="Path_3_" class="st0" points="72,27 62,29.3 62,35 72,32.7 					"/>
					<polygon id="Path_4_" class="st0" points="72,8 62,10.3 62,16 72,13.7 					"/>
					<polygon id="Path_5_" class="st0" points="72,18 62,20.3 62,26 72,23.7 					"/>
					<polygon id="Path_6_" class="st0" points="72,46 62,48.3 62,54 72,51.7 					"/>
					<polygon id="Path_7_" class="st0" points="72,37 62,39.3 62,45 72,42.7 					"/>
					<polygon id="Path_8_" class="st0" points="20,49 12,50.7 12,55 20,53.3 					"/>
					<polygon id="Path_9_" class="st0" points="20,56 12,58 12,63 20,61 					"/>
					<path id="Path_10_" class="st0" d="M20,24c-3.1,0.2-5.8,0.5-8,0.8V28l8-1.5V24z"/>
					<polygon id="Path_11_" class="st0" points="20,42 12,43.7 12,48 20,46.3 					"/>
					<polygon id="Path_12_" class="st0" points="20,28 12,30 12,35 20,33 					"/>
					<polygon id="Path_13_" class="st0" points="20,36 12,38 12,43 20,41 					"/>
					<path id="Path_14_" class="st0" d="M93.1,68.9c0-18.6,0-64.9,0-65c0-2.1-8.5-3.8-19.1-3.9v68.9h-2.3v-4.1l-10.1,2.3v1.8h-2.3V1
						c-4.1,0.7-6.6,1.7-6.6,2.9c0,0,0,46.4,0,65h-6.1c0-14,0-42.5,0-42.5c0-2.1-9.1-3.9-20.3-3.9c-1.9,0-3.7,0.1-5.5,0.1v46.2h-6.9
						l5.2-1.2v-4.3l-7.4,1.7v3.8H9.9V24.1C7.4,24.7,6,25.5,6,26.4c0,0,0,28.5,0,42.5H0V77h99v-8.1H93.1z"/>
				</g>
				
					<g id="oil-tower" transform="translate(940.500000, 53.500000) scale(-1, 1) translate(-940.500000, -53.500000) translate(912.000000, 0.000000)">
					<path id="Path_15_" class="st0" d="M24.9,26.4c5.1,0,8.7,2.1,8.7,2.2c0.1,0.1,0.3,0.1,0.5,0.1c0.5,0,0.9-0.4,0.9-0.9
						c0-0.2-0.1-0.4-0.1-0.5C34.3,26.1,27.6,13.5,17,9.1C15.2,8.4,13.5,8,11.8,8c-6.6,0-9.9,5.6-10.7,7.3c-1.5,3.1-1.4,6.5,0.3,9.4
						C3.3,28,6.9,30,10.8,30c1.9,0,3.8-0.5,5.7-1.4C19.1,27.2,22,26.4,24.9,26.4z"/>
					<path id="Path_16_" class="st0" d="M56.4,17.7C56,16.8,54.2,14,50.6,14c-0.9,0-1.9,0.2-2.8,0.6c-5.9,2.2-9.5,8.9-9.7,9.1
						c-0.1,0.2-0.1,0.4,0.1,0.5c0.2,0.1,0.4,0.2,0.6,0.1c0,0,2-1.1,4.7-1.1c1.6,0,3.2,0.4,4.6,1.1c1,0.5,2,0.7,3.1,0.7
						c2.1,0,4.1-1,5.1-2.7C57.2,20.9,57.2,19.2,56.4,17.7z"/>
					<path id="Path_17_" class="st0" d="M36,19c0,0,0.1,0,0.1,0c0.2-0.1,0.3-0.3,0.3-0.5c0,0-0.1-5,4-8.1c2.2-1.6,3.1-4.3,2.3-6.9
						C42.1,1.4,40.4,0,38.4,0l-0.1,0c-2.7,0-5.8,1.6-6.2,6c-0.6,6.2,3.4,12.5,3.6,12.8C35.7,18.9,35.9,19,36,19z"/>
					<path id="Shape_3_" class="st0" d="M53.4,98.8H51L41.6,34c-0.2-1.2-1.2-2-2.4-2h-8.6c-1.2,0-2.2,0.9-2.4,2L19,98.8h-2.5
						c-0.9,0-1.6,0.7-1.6,1.6v5c0,0.9,0.7,1.6,1.6,1.6h36.8c0.9,0,1.6-0.7,1.6-1.6v-5C55,99.5,54.3,98.8,53.4,98.8z M41.4,66
						l2.3,16.2l-12.5-9.7L41.4,66z M40.4,58.6l-7.6-5.7l6.1-5.1L40.4,58.6z M32.8,36.8h4.4l0.8,5.5L31.2,48L32.8,36.8z M29.9,56.7
						l7.9,5.9l-9.7,6.2L29.9,56.7z M27.2,75.4l13,10L24.1,97.2L27.2,75.4z M31,98l13.6-9.9L46,98H31z"/>
				</g>
			</g>
			<g id="pipes" transform="translate(335.000000, 22.000000)">
				<rect id="Rectangle" x="78" y="82" class="st1" width="4" height="26"/>
				<path id="Rectangle-Copy-13" class="st1" d="M62,16L62,16c1.1,0,2,0.9,2,2v65c0,1.1-0.9,2-2,2l0,0c-1.1,0-2-0.9-2-2V18
					C60,16.9,60.9,16,62,16z"/>
				<path id="Rectangle-Copy-14" class="st1" d="M19,16L19,16c1.1,0,2,0.9,2,2v88c0,1.1-0.9,2-2,2l0,0c-1.1,0-2-0.9-2-2V18
					C17,16.9,17.9,16,19,16z"/>
				<path id="Combined-Shape" class="st1" d="M39,0v59.2l7,6.8v41H25V66l8-7.4V0H39z"/>
				<path id="Rectangle-Copy-15" class="st1" d="M19,16h43c1.1,0,2,0.9,2,2l0,0c0,1.1-0.9,2-2,2H19c-1.1,0-2-0.9-2-2l0,0
					C17,16.9,17.9,16,19,16z"/>
				<path id="Rectangle-Copy-20" class="st1" d="M4,32h33c1.1,0,2,0.9,2,2l0,0c0,1.1-0.9,2-2,2H4c-1.1,0-2-0.9-2-2l0,0
					C2,32.9,2.9,32,4,32z"/>
				<path id="Rectangle-Copy-21" class="st1" d="M2,32h3c1.1,0,2,0.9,2,2v14c0,1.1-0.9,2-2,2H2c-1.1,0-2-0.9-2-2V34
					C0,32.9,0.9,32,2,32z"/>
				<path id="Rectangle-Copy-16" class="st1" d="M62,81h309c1.1,0,2,0.9,2,2l0,0c0,1.1-0.9,2-2,2H62c-1.1,0-2-0.9-2-2l0,0
					C60,81.9,60.9,81,62,81z"/>
				<rect id="Rectangle-Copy" x="109" y="82" class="st1" width="4" height="26"/>
				<rect id="Rectangle-Copy-2" x="139" y="82" class="st1" width="4" height="26"/>
				<rect id="Rectangle-Copy-3" x="169" y="82" class="st1" width="4" height="26"/>
				<rect id="Rectangle-Copy-4" x="199" y="82" class="st1" width="4" height="26"/>
				<rect id="Rectangle-Copy-5" x="229" y="82" class="st1" width="4" height="26"/>
				<rect id="Rectangle-Copy-6" x="259" y="82" class="st1" width="4" height="26"/>
				<rect id="Rectangle-Copy-7" x="291" y="82" class="st1" width="4" height="26"/>
				<rect id="Rectangle-Copy-8" x="323" y="82" class="st1" width="4" height="26"/>
				<rect id="Rectangle-Copy-9" x="355" y="82" class="st1" width="4" height="26"/>
				<path id="Rectangle-Copy-10" class="st1" d="M371,82L371,82c1.1,0,2,0.9,2,2v22c0,1.1-0.9,2-2,2l0,0c-1.1,0-2-0.9-2-2V84
					C369,82.9,369.9,82,371,82z"/>
				<path id="Rectangle-Copy-11" class="st1" d="M386,84L386,84c1.1,0,2,0.9,2,2v19c0,1.1-0.9,2-2,2l0,0c-1.1,0-2-0.9-2-2V86
					C384,84.9,384.9,84,386,84z"/>
				<path id="Rectangle-Copy-12" class="st1" d="M380,91L380,91c1.1,0,2,0.9,2,2v12c0,1.1-0.9,2-2,2l0,0c-1.1,0-2-0.9-2-2V93
					C378,91.9,378.9,91,380,91z"/>
				<path id="Rectangle-Copy-17" class="st1" d="M380,91h25c1.1,0,2,0.9,2,2l0,0c0,1.1-0.9,2-2,2h-25c-1.1,0-2-0.9-2-2l0,0
					C378,91.9,378.9,91,380,91z"/>
				<path id="Rectangle-Copy-18" class="st1" d="M386,84h25c1.1,0,2,0.9,2,2l0,0c0,1.1-0.9,2-2,2h-25c-1.1,0-2-0.9-2-2l0,0
					C384,84.9,384.9,84,386,84z"/>
				<rect id="Rectangle_1_" y="46" class="st1" width="10" height="58"/>
			</g>
			<path id="Sand" class="st1" d="M0,135h1120c-6.4-7.8-9.6-12.8-9.6-15l-17.2-6l-12.8-15.8c-31.6,0.9-49.9,0.9-54.7,0
				c-4.9-0.9-10.9-4.1-18.3-9.7h-29.9l-4.1,9.7c-20.8-1-32.4-1-35,0c-3.8,1.5-35.7,7.6-71.6,6.1c-24-1-39.8-1-47.5,0l-4.3,6.5
				l-14,3.3l-6.2-3.3H788l-8.5-6.5c-32.8,13.7-52.8,20.6-60.2,20.6c-11.1,0-17.6-10.2-73.7,0l-26,1.3c-1-4.3-2.7-6.5-5.1-6.5
				c-3.6,0-28.6,2-30.6,0c-1.3-1.4-3.7-3.6-7.1-6.7c-7.8,2.4-11.8,3.6-11.8,3.6s-5.1-3-5.1-5.6s-43.8,3.7-53.8,3.7
				c-10,0-14.9-10.4-29.2-6c-14.3,4.3-4,7.7-22.7,6c-18.7-1.7-12.7,6.5-33.5,5l-8.3,6.5h-25.3c-22.9-6.9-47.5-7.4-73.9-1.5
				c-18.1-4.2-34.4-5.3-48.9-3.2c-12.8,1.9-27.2-7.3-54.4-3.8c-40.9,5.2-121.5-16.4-125.4-19.8c-2.6-2.3-13.8-0.2-33.7,6.1
				c-0.9,3.5-13.2,4.4-17.5,6.8c-5.4,3-3.8,7.2-14.6,8.4L0,135z"/>
		</g>
	</g>
</g>
</svg>
